<svg width="181" height="256" viewBox="0 0 181 256" fill="none" xmlns="http://www.w3.org/2000/svg">
<path d="M48.1999 119.467H3C1.34315 119.467 0 120.81 0 122.467V210.334C0 211.99 1.34314 213.334 3 213.334H48.1999C49.8567 213.334 51.1999 211.99 51.1999 210.334V122.467C51.1999 120.81 49.8568 119.467 48.1999 119.467Z" fill="#E5A949"/>
<path d="M42.9834 97.759C42.7751 97.3424 42.6666 96.8831 42.6666 96.4173V79.7988C42.6666 78.142 41.3235 76.7988 39.6666 76.7988H11.5336C9.87671 76.7988 8.53356 78.142 8.53356 79.7988V96.4173C8.53356 96.8831 8.42512 97.3424 8.21682 97.759L3.80081 106.591C2.80342 108.585 4.2539 110.932 6.48407 110.932H44.7161C46.9463 110.932 48.3968 108.585 47.3994 106.591L42.9834 97.759Z" fill="#E5A949"/>
<path d="M35.133 21.1883L29.6888 3.04237C29.1469 1.23728 27.4831 0 25.6012 0C23.7153 0 22.0556 1.23728 21.5137 3.04237L16.0654 21.1883C11.7694 35.5102 9.38618 50.2844 8.78671 65.1959C8.71903 66.8793 10.0759 68.2666 11.7607 68.2666H39.4381C41.1229 68.2666 42.4799 66.8793 42.4121 65.1958C41.8122 50.2843 39.4291 35.5102 35.133 21.1883Z" fill="#E5A949"/>
<path d="M48.2308 233.665C47.7624 233.182 47.605 232.49 47.7711 231.838L49.3314 225.595C49.8046 223.701 48.3726 221.867 46.4209 221.867H4.77656C2.82548 221.867 1.39353 223.7 1.86576 225.593L3.42355 231.838C3.59042 232.489 3.4356 233.184 2.96798 233.667C1.14472 235.55 0.00195312 238.091 0.00195312 240.913V245.487C0.00195312 251.286 4.71675 256 10.5148 256H40.6885C46.4825 256 51.2013 251.285 51.2013 245.487V240.913C51.2018 238.091 50.0579 235.549 48.2308 233.665Z" fill="#E5A949"/>
<path d="M112.793 119.467H67.5928C65.9359 119.467 64.5928 120.81 64.5928 122.467V210.334C64.5928 211.99 65.9359 213.334 67.5928 213.334H112.793C114.45 213.334 115.793 211.99 115.793 210.334V122.467C115.793 120.81 114.45 119.467 112.793 119.467Z" fill="#E5A949"/>
<path d="M107.576 97.759C107.368 97.3424 107.259 96.8831 107.259 96.4173V79.7988C107.259 78.142 105.916 76.7988 104.259 76.7988H76.1263C74.4695 76.7988 73.1263 78.142 73.1263 79.7988V96.4173C73.1263 96.8831 73.0179 97.3424 72.8096 97.759L68.3936 106.591C67.3962 108.585 68.8467 110.932 71.0768 110.932H109.309C111.539 110.932 112.99 108.585 111.992 106.591L107.576 97.759Z" fill="#E5A949"/>
<path d="M99.7258 21.1883L94.2815 3.04237C93.7396 1.23728 92.0759 0 90.194 0C88.3081 0 86.6484 1.23728 86.1065 3.04237L80.6582 21.1883C76.3621 35.5102 73.979 50.2844 73.3795 65.1959C73.3118 66.8793 74.6687 68.2666 76.3535 68.2666H104.031C105.716 68.2666 107.073 66.8793 107.005 65.1958C106.405 50.2843 104.022 35.5102 99.7258 21.1883Z" fill="#E5A949"/>
<path d="M112.824 233.665C112.355 233.182 112.198 232.49 112.364 231.838L113.924 225.595C114.397 223.701 112.965 221.867 111.014 221.867H69.3693C67.4183 221.867 65.9863 223.7 66.4585 225.593L68.0163 231.838C68.1832 232.489 68.0284 233.184 67.5608 233.667C65.7375 235.55 64.5947 238.091 64.5947 240.913V245.487C64.5947 251.286 69.3095 256 75.1076 256H105.281C111.075 256 115.794 251.285 115.794 245.487V240.913C115.795 238.091 114.651 235.549 112.824 233.665Z" fill="#E5A949"/>
<path d="M177.384 119.467H132.185C130.528 119.467 129.185 120.81 129.185 122.467V210.334C129.185 211.99 130.528 213.334 132.185 213.334H177.384C179.041 213.334 180.384 211.99 180.384 210.334V122.467C180.384 120.81 179.041 119.467 177.384 119.467Z" fill="#E5A949"/>
<path d="M172.169 97.759C171.961 97.3424 171.852 96.8831 171.852 96.4173V79.7988C171.852 78.142 170.509 76.7988 168.852 76.7988H140.719C139.062 76.7988 137.719 78.142 137.719 79.7988V96.4173C137.719 96.8831 137.611 97.3424 137.402 97.759L132.986 106.591C131.989 108.585 133.439 110.932 135.67 110.932H173.902C176.132 110.932 177.582 108.585 176.585 106.591L172.169 97.759Z" fill="#E5A949"/>
<path d="M164.319 21.1883L158.874 3.04237C158.332 1.23728 156.669 0 154.787 0C152.901 0 151.241 1.23728 150.699 3.04237L145.251 21.1883C140.955 35.5102 138.572 50.2844 137.972 65.1959C137.905 66.8793 139.261 68.2666 140.946 68.2666H168.624C170.308 68.2666 171.665 66.8793 171.598 65.1958C170.998 50.2843 168.615 35.5102 164.319 21.1883Z" fill="#E5A949"/>
<path d="M177.416 233.665C176.948 233.182 176.791 232.49 176.957 231.838L178.517 225.595C178.99 223.701 177.558 221.867 175.606 221.867H133.962C132.011 221.867 130.579 223.7 131.051 225.593L132.609 231.838C132.776 232.489 132.621 233.184 132.154 233.667C130.33 235.55 129.188 238.091 129.188 240.913V245.487C129.188 251.286 133.902 256 139.7 256H169.874C175.668 256 180.387 251.285 180.387 245.487V240.913C180.387 238.091 179.243 235.549 177.416 233.665Z" fill="#E5A949"/>
</svg>
