<svg width="302" height="256" viewBox="0 0 302 256" fill="none" xmlns="http://www.w3.org/2000/svg">
<path d="M150.588 36.6095C218.35 -31.8366 301.177 1.24446 301.177 89.8488C301.177 142.889 240.649 198.983 196.342 232.941C176.283 248.314 166.254 256 150.588 256C134.922 256 124.893 248.314 104.835 232.941C60.5274 198.983 0 142.887 0 89.8488C0.000227661 1.24439 82.8258 -31.8362 150.588 36.6095ZM150.588 82.674C143.784 82.674 138.267 88.1899 138.267 94.9943V115.529H117.732C110.928 115.529 105.411 121.046 105.411 127.851C105.411 134.655 110.928 140.171 117.732 140.171H138.267V160.706C138.267 167.51 143.784 173.027 150.588 173.027C157.392 173.026 162.908 167.51 162.908 160.706V140.171H183.443C190.248 140.171 195.765 134.655 195.765 127.851C195.765 121.046 190.248 115.529 183.443 115.529H162.908V94.9943C162.908 88.19 157.392 82.6741 150.588 82.674Z" fill="#CD4345"/>
</svg>
